Coordinates
version=1
nRows=12
nColumns=24
inDegrees=yes

Units are S.I. units (second, meters, Newtons, ...)
Angles are in degrees.

endheader
time	pelvis_tilt	pelvis_list	pelvis_rotation	pelvis_tx	pelvis_ty	pelvis_tz	hip_flexion_r	hip_adduction_r	hip_rotation_r	knee_angle_r	ankle_angle_r	subtalar_angle_r	mtp_angle_r	hip_flexion_l	hip_adduction_l	hip_rotation_l	knee_angle_l	ankle_angle_l	subtalar_angle_l	mtp_angle_l	lumbar_extension	lumbar_bending	lumbar_rotation
      6.00000000	    -11.38497124	      1.03911346	     -4.87469151	     -1.86791338	     -0.02971060	     -0.26535690	     -4.44641123	      2.32303452	      7.94327980	    -14.76064185	      8.71455853	      8.44065866	     21.16603770	     34.57151602	     -0.31097903	     -2.64889063	     -6.98890920	     -1.96623635	      0.95536605	      9.07125595	      9.22600460	     -0.44762912	     14.69266311
      6.00500000	    -11.41393482	      1.17765671	     -5.00420477	     -1.86107632	     -0.03060423	     -0.26584790	     -4.54406096	      2.05181439	      7.82209112	    -15.31319239	      8.56524732	      9.08091485	     21.39277354	     34.58086302	     -0.18524350	     -2.77578258	     -7.64945981	     -2.39887800	      0.56363539	      9.06668343	      9.45168272	     -0.56492345	     14.80762036
      6.01000000	    -11.47442208	      1.33595878	     -5.05690369	     -1.85422342	     -0.03149023	     -0.26644968	     -4.58537564	      1.74906896	      7.51417916	    -15.89166886	      8.38994036	      9.85290952	     21.73747099	     34.63872369	      0.00602531	     -2.79858217	     -8.31583380	     -2.99839124	      0.04987882	      9.09433342	      9.71474469	     -0.72414578	     14.82418196
      6.01500000	    -11.54080656	      1.52830429	     -5.08436971	     -1.84739423	     -0.03230776	     -0.26711507	     -4.59347773	      1.40355534	      7.18005472	    -16.49994340	      8.14899991	     10.63418989	     22.14515531	     34.71073703	      0.24953450	     -2.76731942	     -8.97702925	     -3.71357159	     -0.55565593	      9.12980527	      9.98192407	     -0.91715506	     14.82470055
      6.02000000	    -11.61830968	      1.77165613	     -5.08089282	     -1.84056958	     -0.03303644	     -0.26780293	     -4.56209590	      0.99983835	      6.79448255	    -17.13694761	      7.83718114	     11.42816438	     22.59374698	     34.80658840	      0.56074408	     -2.71705725	     -9.64129626	     -4.50304370	     -1.19636643	      9.14986986	     10.26604064	     -1.17829859	     14.80124044
      6.02500000	    -11.66275496	      1.97721541	     -5.02834182	     -1.83396420	     -0.03363854	     -0.26866757	     -4.50938784	      0.61173075	      6.28360489	    -17.83855142	      7.43235646	     12.38841869	     23.30651721	     34.88802861	      0.88874532	     -2.44614186	    -10.30915972	     -5.41856326	     -2.03019967	      9.21960211	     10.46301542	     -1.39503093	     14.69638950
      6.03000000	    -11.74920184	      2.31093071	     -4.98081681	     -1.82725354	     -0.03413244	     -0.26941245	     -4.38640017	      0.09495526	      5.79594857	    -18.56276654	      6.93965500	     13.25640406	     23.95925321	     35.01928430	      1.32095496	     -2.30712118	    -10.99601599	     -6.28839623	     -2.68901027	      9.17287428	     10.74459384	     -1.76507961	     14.64966508
      6.03500000	    -11.83082058	      2.67082885	     -4.87844390	     -1.82058972	     -0.03451194	     -0.27023162	     -4.23402852	     -0.46070222	      5.21127681	    -19.33061616	      6.36063931	     14.18242801	     24.66465704	     35.16282597	      1.81951180	     -2.06633730	    -11.71744319	     -7.12162238	     -3.32000928	      9.02273677	     11.01051827	     -2.17686880	     14.55556876
      6.04000000	    -11.90764336	      3.06029855	     -4.75378242	     -1.81396302	     -0.03476675	     -0.27104761	     -4.04874049	     -1.05791018	      4.56622185	    -20.14231779	      5.67996305	     15.14933553	     25.41641163	     35.31395852	      2.36456338	     -1.77451249	    -12.47631170	     -7.88933694	     -3.89625637	      8.74074562	     11.26551361	     -2.63002805	     14.45291535
      6.04500000	    -11.97415050	      3.47303391	     -4.59979107	     -1.80735113	     -0.03490926	     -0.27188632	     -3.83933924	     -1.69293876	      3.85693736	    -20.99880867	      4.88270891	     16.14942145	     26.23203896	     35.46056008	      2.95681921	     -1.41645650	    -13.26630263	     -8.56345511	     -4.40433379	      8.31115108	     11.50511399	     -3.12021473	     14.33957387
      6.05000000	    -11.99461496	      3.90852059	     -4.38779170	     -1.80069875	     -0.03488929	     -0.27276523	     -3.68330392	     -2.35427969	      3.14406220	    -21.80322660	      3.71168520	     16.92307578	     27.65055570	     35.53338869	      3.63366889	     -0.82641367	    -14.05627698	     -9.07674895	     -4.96968690	      7.32333188	     11.69126725	     -3.66050097	     14.14455158
      6.05500000	    -12.04427834	      4.34014822	     -4.21101488	     -1.79407133	     -0.03483751	     -0.27357476	     -3.42214397	     -3.03687511	      2.34665711	    -22.74443232	      2.63432140	     17.96441017	     28.65788151	     35.65470376	      4.26669999	     -0.43482101	    -14.88323837	     -9.42684727	     -5.24563568	      6.47869923	     11.91205319	     -4.18657823	     14.02466773
